# xmcd
#
# Track frame offsets: 
#        150
#        12090
#        29272
#        47941
#        65555
#        81592
#        100143
#        115841
#        137086
#        151209
#        174481
#        185947
#        201652
#
# Disc length: 2719 seconds
#
# Revision: 2
# Processed by: cddbd v1.5.2PL0 Copyright (c) Steve Scherf et al.
# Submitted via: ExactAudioCopyFreeDBPlugin 1.0
#
DISCID=bb0a9d0d
DTITLE=Barry Goldberg - Stoned Again
DYEAR=2002
DGENRE=Blues
TTITLE0=Stoned
TTITLE1=Tumbling Dice
TTITLE2=Jumping Jack Flash
TTITLE3=Ventilator Blues
TTITLE4=Heart Of Stone
TTITLE5=Parachute Woman
TTITLE6=Let It Bleed
TTITLE7=Think I'm Going Mad
TTITLE8=Good Times, Bad Times
TTITLE9=Melody
TTITLE10=As Tears Go By
TTITLE11=Some Girls
TTITLE12=(I Can't Get No) Satisfaction
EXTD=
EXTT0=
EXTT1=
EXTT2=
EXTT3=
EXTT4=
EXTT5=
EXTT6=
EXTT7=
EXTT8=
EXTT9=
EXTT10=
EXTT11=
EXTT12=
PLAYORDER=
